<svg version="1.1" xmlns="http://www.w3.org/2000/svg" xmlns:xlink="http://www.w3.org/1999/xlink" width="30px" x="0px" y="0px" viewBox="0 0 26 37" style="enable-background:new 0 0 26 37;" xml:space="preserve">
            <path style="fill:#206EC3" class="arrow-first" d="M0.3,32.8l6.3-13.3c0.3-0.7,0.3-1.5,0-2.3L0.2,4.2C-0.3,3.1,0,1.8,1,1l0.1-0.1c1.6-1.5,4.4-1,5.3,1l7.4,15.4c0.3,0.7,0.3,1.5,0,2.3L6.4,35.2c-0.9,1.9-3.7,2.4-5.3,1L1,36C0,35.2-0.3,33.9,0.3,32.8"></path>
            <path style="fill:#3E96F8" class="arrow-second" d="M14.2,32.8l5.4-13.3c0.3-0.7,0.3-1.5,0-2.3L14.2,4.2C13.8,3.1,14,1.8,14.8,1l0.1-0.1c1.4-1.5,3.8-1,4.6,1l6.3,15.4c0.3,0.7,0.3,1.5,0,2.3l-6.3,15.7c-0.8,1.9-3.2,2.4-4.6,1L14.8,36C14,35.2,13.8,33.9,14.2,32.8"></path>
            </svg>