<?xml version="1.0" encoding="UTF-8" standalone="no"?>
<!DOCTYPE svg PUBLIC "-//W3C//DTD SVG 1.1//EN" "http://www.w3.org/Graphics/SVG/1.1/DTD/svg11.dtd">
<svg xmlns="http://www.w3.org/2000/svg" xmlns:xlink="http://www.w3.org/1999/xlink" version="1.1" width="841.89pt" height="595.28pt" viewBox="0 0 841.89 595.28">
<g enable-background="new">
<g id="Layer-1" data-name="Layer">
<clipPath id="cp0">
<path transform="matrix(1,0,0,-1,0,595.28)" d="M 0 595.28 L 841.89 595.28 L 841.89 0 L 0 0 Z "/>
</clipPath>
<g clip-path="url(#cp0)">
<path transform="matrix(1,0,0,-1,241.2812,354.42756)" d="M 0 0 L -54.825 -27.318 L -46.062 -183.957 L -13.209 -149.018 L 20.383 -183.957 L 17.917 -125.551 C 17.917 -125.551 149.125 -263.545 334.818 -125.551 L 331.85 -181.773 L 368.705 -146.756 L 401.509 -178.85 L 407.338 -21.305 L 350.082 3.529 C 350.082 3.529 310.196 -122.457 181.604 -121.686 C 181.604 -121.686 49.441 -128.238 0 0 " fill="#231f20"/>
<path transform="matrix(1,0,0,-1,259.1987,479.9782)" d="M 0 0 C 0 0 135.393 -134.861 316.901 0 C 316.901 0 380.333 63.414 383.611 98.238 C 383.678 98.793 383.712 99.35 383.731 99.896 C 385.07 134.314 383.678 98.793 383.678 98.793 L 334.131 120.592 C 334.131 120.592 297.895 9.207 156.132 -4.08 C 156.132 -4.08 27.966 -4.447 -20.455 117.508 L -65.033 93.516 C -65.033 93.516 -51.045 51.311 0 0 " fill="#ffffff"/>
<path transform="matrix(1,0,0,-1,259.1987,479.9782)" stroke-width="3" stroke-linecap="butt" stroke-miterlimit="10" stroke-linejoin="miter" fill="none" stroke="#231f20" d="M 0 0 C 0 0 135.393 -134.861 316.901 0 C 316.901 0 380.333 63.414 383.611 98.238 C 383.678 98.793 383.712 99.35 383.731 99.896 C 385.07 134.314 383.678 98.793 383.678 98.793 L 334.131 120.592 C 334.131 120.592 297.895 9.207 156.132 -4.08 C 156.132 -4.08 27.966 -4.447 -20.455 117.508 L -65.033 93.516 C -65.033 93.516 -51.045 51.311 0 0 Z "/>
<path transform="matrix(1,0,0,-1,604.5869,303.13844)" d="M 0 0 C 0 -99.918 -84.777 -180.92 -189.357 -180.92 C -293.927 -180.92 -378.705 -99.918 -378.705 0 C -378.705 99.926 -293.927 180.921 -189.357 180.921 C -84.777 180.921 0 99.926 0 0 " fill="#0450a4"/>
<path transform="matrix(1,0,0,-1,550.1582,301.41184)" d="M 0 0 C 0 -72.436 -60.514 -131.143 -135.155 -131.143 C -209.797 -131.143 -270.311 -72.436 -270.311 0 C -270.311 72.43 -209.797 131.153 -135.155 131.153 C -60.514 131.153 0 72.43 0 0 " fill="#ffffff"/>
<path transform="matrix(1,0,0,-1,253.7129,294.34303)" d="M 0 0 L .237 3.804 C .271 4.227 .179 5.029 -.015 6.228 C -.097 6.829 -.372 7.339 -.836 7.752 C -1.3 8.163 -1.856 8.386 -2.504 8.432 C -3.446 8.487 -4.186 8.231 -4.737 7.67 C -5.273 7.098 -5.597 5.993 -5.703 4.34 L -5.95 .37 Z M 16.835 -10.176 L -12.432 -8.348 L -11.479 6.728 C -11.31 9.524 -10.938 11.648 -10.363 13.093 C -9.788 14.536 -8.826 15.674 -7.473 16.496 C -6.119 17.32 -4.505 17.67 -2.644 17.562 C -1.024 17.456 .357 17.018 1.494 16.254 C 2.625 15.488 3.523 14.473 4.176 13.214 C 4.592 12.419 4.916 11.334 5.133 9.966 C 5.568 11.029 5.974 11.786 6.356 12.255 C 6.622 12.569 7.158 13.019 7.99 13.605 C 8.821 14.186 9.444 14.575 9.894 14.754 L 18.647 18.601 L 17.995 8.386 L 8.758 4.11 C 7.555 3.574 6.771 3.074 6.395 2.615 C 5.906 1.989 5.631 1.278 5.578 .444 L 5.529 -.351 L 17.405 -1.1 Z " fill="#ffffff"/>
<path transform="matrix(1,0,0,-1,244.8584,266.30253)" d="M 0 0 L 6.68 23.345 L 12.697 21.62 L 8.516 7.006 L 12.997 5.718 L 16.878 19.278 L 22.63 17.64 L 18.749 4.08 L 24.312 2.489 L 28.604 17.523 L 34.989 15.699 L 28.193 -8.064 Z " fill="#ffffff"/>
<path transform="matrix(1,0,0,-1,255.2305,232.98853)" d="M 0 0 L 5.873 10.36 L 23.664 5.551 L 10.392 18.328 L 16.27 28.691 L 41.775 14.215 L 38.111 7.77 L 18.657 18.8 L 35.293 2.794 L 31.973 -3.052 L 9.715 3.016 L 29.155 -8.016 L 25.506 -14.469 Z " fill="#ffffff"/>
<path transform="matrix(1,0,0,-1,278.605,195.29514)" d="M 0 0 L 5.853 6.114 L 25.206 2.878 L 13.485 14.092 L 19.386 20.261 L 40.576 -.005 L 34.674 -6.17 L 15.452 -2.987 L 27.082 -14.106 L 21.199 -20.267 Z " fill="#ffffff"/>
<path transform="matrix(1,0,0,-1,329.6743,174.42704)" d="M 0 0 L -8.555 6.965 L -5.355 -3.579 Z M 5.084 -4.215 L -3.465 -9.94 L -1.962 -14.759 L -9.643 -19.904 L -16.792 10.587 L -8.584 16.088 L 16.883 -2.151 L 8.995 -7.432 Z " fill="#ffffff"/>
<path transform="matrix(1,0,0,-1,337.3838,148.75223)" d="M 0 0 L 7.888 3.062 L 24.051 -8.055 L 18.183 7.062 L 26.139 10.157 L 36.758 -17.173 L 28.802 -20.269 L 12.731 -9.234 L 18.56 -24.239 L 10.619 -27.328 Z " fill="#ffffff"/>
<path transform="matrix(1,0,0,-1,371.9517,136.33322)" d="M 0 0 L 27.188 4.403 L 28.338 -2.748 L 19.222 -4.219 L 22.751 -26.013 L 13.809 -27.468 L 10.276 -5.667 L 1.146 -7.15 Z " fill="#ffffff"/>
<path transform="matrix(1,0,0,-1,437.1201,151.66434)" d="M 0 0 L -1.86 10.87 L -6.38 .817 Z M 1.063 -6.521 L -9.14 -5.218 L -11.165 -9.838 L -20.349 -8.664 L -5.693 19.017 L 4.104 17.768 L 11.315 -12.717 L 1.899 -11.511 Z " fill="#ffffff"/>
<path transform="matrix(1,0,0,-1,471.5098,159.90552)" d="M 0 0 L 6.719 -4.872 C 5.486 -6.803 4.089 -8.289 2.509 -9.321 C .937 -10.353 -.773 -10.955 -2.635 -11.122 C -4.485 -11.278 -6.655 -10.933 -9.14 -10.072 C -12.146 -9.026 -14.452 -7.745 -16.062 -6.206 C -17.671 -4.671 -18.783 -2.562 -19.406 .126 C -20.029 2.806 -19.749 5.868 -18.561 9.302 C -16.965 13.892 -14.529 16.987 -11.242 18.606 C -7.956 20.226 -4.074 20.262 .387 18.72 C 3.876 17.514 6.375 15.856 7.883 13.751 C 9.387 11.648 10.131 8.971 10.082 5.708 L 1.938 6.648 C 1.967 7.579 1.904 8.294 1.75 8.78 C 1.498 9.609 1.088 10.31 .521 10.904 C -.059 11.494 -.773 11.943 -1.629 12.238 C -3.567 12.915 -5.326 12.646 -6.897 11.438 C -8.076 10.554 -9.102 8.867 -9.962 6.393 C -11.021 3.318 -11.281 1.059 -10.745 -.411 C -10.203 -1.865 -9.092 -2.895 -7.41 -3.475 C -5.762 -4.043 -4.369 -4.009 -3.209 -3.383 C -2.059 -2.755 -.986 -1.629 0 0 " fill="#ffffff"/>
<path transform="matrix(1,0,0,-1,497.3389,174.08914)" d="M 0 0 L 2.692 10.691 L -5.505 3.338 Z M -1.682 -6.392 L -10.474 -1.065 L -14.215 -4.466 L -22.117 .331 L 2.514 19.694 L 10.962 14.563 L 5.177 -16.223 L -2.938 -11.295 Z " fill="#ffffff"/>
<path transform="matrix(1,0,0,-1,525.7646,181.31223)" d="M 0 0 L -11.03 -11.631 L -9.411 -13.159 C -8.038 -14.461 -6.922 -15.237 -6.047 -15.481 C -5.177 -15.723 -4.215 -15.622 -3.171 -15.177 C -2.122 -14.737 -.788 -13.654 .826 -11.953 C 2.963 -9.693 4.055 -7.806 4.108 -6.281 C 4.166 -4.747 3.34 -3.176 1.638 -1.556 Z M -2.011 11.054 L 7.757 1.788 C 9.681 -.039 10.995 -1.774 11.682 -3.422 C 12.373 -5.068 12.639 -6.748 12.494 -8.449 C 12.339 -10.172 11.813 -11.832 10.942 -13.463 C 10.058 -15.087 8.932 -16.632 7.55 -18.084 C 5.394 -20.356 3.465 -21.874 1.759 -22.635 C .053 -23.401 -1.663 -23.773 -3.379 -23.747 C -5.104 -23.72 -6.622 -23.343 -7.941 -22.627 C -9.754 -21.644 -11.247 -20.602 -12.407 -19.493 L -22.186 -10.235 Z " fill="#ffffff"/>
<path transform="matrix(1,0,0,-1,549.3174,196.17993)" d="M 0 0 L 13.771 -20.003 L 8.608 -23.551 L -.01 -11.03 L -3.853 -13.671 L 4.147 -25.283 L -.773 -28.681 L -8.777 -17.064 L -13.538 -20.346 L -4.669 -33.225 L -10.136 -36.99 L -24.157 -16.627 Z " fill="#ffffff"/>
<path transform="matrix(1,0,0,-1,568.4668,225.36594)" d="M 0 0 L 4.249 -11.126 L -10.773 -21.792 L 7.526 -19.684 L 11.784 -30.803 L -15.611 -41.28 L -18.255 -34.354 L 2.63 -26.359 L -20.3 -29.015 L -22.697 -22.736 L -3.852 -9.416 L -24.732 -17.413 L -27.391 -10.479 Z " fill="#ffffff"/>
<path transform="matrix(1,0,0,-1,582.1895,264.41233)" d="M 0 0 L 1.188 -9.988 L -7.941 -17.021 L 2.576 -21.738 L 3.75 -31.678 L -14.515 -22.362 L -26.705 -23.805 L -27.773 -14.795 L -15.578 -13.345 Z " fill="#ffffff"/>
<path transform="matrix(1,0,0,-1,522.5742,301.84745)" d="M 0 0 C 0 -57.287 -48.136 -103.707 -107.509 -103.707 C -166.882 -103.707 -215.013 -57.287 -215.013 0 C -215.013 57.269 -166.882 103.701 -107.509 103.701 C -48.136 103.701 0 57.269 0 0 " fill="#fff200"/>
<path transform="matrix(1,0,0,-1,265.1631,331.46464)" d="M 0 0 L 1.672 -6.857 L -10.749 -18.578 L 3.843 -15.795 L 5.524 -22.725 L -20.856 -27.742 L -22.543 -20.826 L -10.223 -9.172 L -24.698 -11.934 L -26.385 -5.021 Z " fill="#ffffff"/>
<path transform="matrix(1,0,0,-1,279.0107,371.57984)" d="M 0 0 L 3.417 -6.85 L -11.232 -12.707 C -12.688 -13.277 -14.167 -13.627 -15.66 -13.736 C -17.153 -13.844 -18.608 -13.65 -20.015 -13.162 C -21.417 -12.68 -22.553 -12.031 -23.427 -11.229 C -24.65 -10.117 -25.718 -8.623 -26.656 -6.758 C -27.197 -5.68 -27.7 -4.463 -28.179 -3.119 C -28.643 -1.785 -28.846 -.58 -28.783 .479 C -28.71 1.541 -28.401 2.604 -27.84 3.682 C -27.279 4.75 -26.574 5.631 -25.733 6.268 C -24.375 7.326 -23.104 8.086 -21.89 8.568 L -7.226 14.428 L -3.804 7.592 L -18.812 1.59 C -20.155 1.059 -21.035 .303 -21.455 -.672 C -21.871 -1.648 -21.779 -2.723 -21.189 -3.926 C -20.595 -5.1 -19.759 -5.873 -18.681 -6.25 C -17.598 -6.627 -16.375 -6.541 -15.012 -5.994 Z " fill="#ffffff"/>
<path transform="matrix(1,0,0,-1,280.3496,393.0407)" d="M 0 0 L 2.054 -2.586 C 2.271 -2.867 2.804 -3.346 3.64 -4.021 C 4.045 -4.365 4.543 -4.549 5.119 -4.578 C 5.694 -4.596 6.216 -4.451 6.694 -4.152 C 7.4 -3.697 7.787 -3.137 7.845 -2.498 C 7.898 -1.852 7.487 -.971 6.598 .15 L 4.466 2.848 Z M -17.937 -2.17 L 4.007 11.832 L 12.112 1.605 C 13.616 -.281 14.587 -1.842 15.022 -3.078 C 15.457 -4.303 15.433 -5.539 14.94 -6.771 C 14.452 -8.004 13.514 -9.063 12.117 -9.961 C 10.899 -10.744 9.662 -11.17 8.41 -11.268 C 7.144 -11.359 5.921 -11.17 4.722 -10.697 C 3.954 -10.406 3.098 -9.865 2.141 -9.102 C 2.456 -10.01 2.61 -10.705 2.605 -11.213 C 2.605 -11.553 2.475 -12.127 2.229 -12.93 C 1.977 -13.732 1.75 -14.313 1.547 -14.66 L -2.465 -21.687 L -7.951 -14.756 L -3.847 -7.207 C -3.306 -6.24 -3.035 -5.506 -3.03 -5.018 C -3.045 -4.355 -3.272 -3.746 -3.712 -3.195 L -4.147 -2.654 L -13.05 -8.328 Z " fill="#ffffff"/>
<path transform="matrix(1,0,0,-1,287.0586,411.77516)" d="M 0 0 L 6.051 -4.684 C 5.278 -5.617 4.848 -6.473 4.761 -7.24 C 4.611 -8.473 5.113 -9.604 6.273 -10.609 C 7.129 -11.363 7.979 -11.76 8.83 -11.809 C 9.681 -11.855 10.362 -11.643 10.87 -11.17 C 11.363 -10.715 11.576 -10.125 11.518 -9.381 C 11.46 -8.643 10.802 -7.41 9.536 -5.68 C 7.477 -2.855 6.36 -.508 6.182 1.35 C 6.003 3.215 6.65 4.818 8.11 6.182 C 9.077 7.072 10.28 7.652 11.721 7.941 C 13.151 8.23 14.693 8.092 16.346 7.525 C 17.999 6.965 19.841 5.795 21.856 4.021 C 24.336 1.852 25.786 -.217 26.192 -2.18 C 26.603 -4.143 25.965 -6.133 24.263 -8.145 L 18.289 -3.49 C 18.985 -2.58 19.28 -1.734 19.188 -.961 C 19.087 -.178 18.613 .576 17.772 1.32 C 17.071 1.928 16.399 2.258 15.762 2.305 C 15.124 2.344 14.592 2.18 14.186 1.812 C 13.891 1.533 13.765 1.156 13.818 .672 C 13.853 .203 14.297 -.604 15.143 -1.725 C 17.211 -4.529 18.536 -6.684 19.116 -8.193 C 19.691 -9.701 19.826 -11.068 19.512 -12.281 C 19.198 -13.49 18.531 -14.578 17.506 -15.52 C 16.303 -16.641 14.848 -17.361 13.151 -17.695 C 11.44 -18.033 9.705 -17.898 7.946 -17.299 C 6.191 -16.699 4.369 -15.578 2.484 -13.934 C -.812 -11.045 -2.479 -8.473 -2.528 -6.221 C -2.571 -3.969 -1.73 -1.898 0 0 " fill="#ffffff"/>
<path transform="matrix(1,0,0,-1,319.1904,416.91383)" d="M 0 0 L 18.493 -11.436 L 15.245 -15.697 L 3.669 -8.545 L 1.257 -11.711 L 11.997 -18.355 L 8.894 -22.432 L -1.841 -15.795 L -4.838 -19.729 L 7.081 -27.09 L 3.64 -31.613 L -15.191 -19.98 Z " fill="#ffffff"/>
<path transform="matrix(1,0,0,-1,343.6523,441.86305)" d="M 0 0 L 3.214 -1.314 C 3.558 -1.449 4.277 -1.623 5.375 -1.836 C 5.931 -1.953 6.462 -1.885 6.96 -1.643 C 7.473 -1.402 7.84 -1.043 8.082 -.561 C 8.435 .154 8.449 .803 8.14 1.393 C 7.825 1.982 6.97 2.557 5.583 3.127 L 2.238 4.496 Z M -14.2 -10.014 L -3.19 12.074 L 9.512 6.893 C 11.861 5.932 13.572 5.018 14.636 4.146 C 15.704 3.277 16.366 2.195 16.646 .908 C 16.917 -.377 16.704 -1.734 16.003 -3.137 C 15.399 -4.369 14.578 -5.307 13.543 -5.955 C 12.523 -6.611 11.354 -7.004 10.059 -7.139 C 9.232 -7.221 8.197 -7.152 6.95 -6.922 C 7.724 -7.568 8.246 -8.1 8.531 -8.545 C 8.724 -8.846 8.927 -9.396 9.164 -10.203 C 9.406 -11.01 9.531 -11.609 9.551 -12.006 L 10.049 -19.924 L 1.436 -16.408 L .73 -7.984 C .652 -6.912 .479 -6.148 .208 -5.727 C -.174 -5.152 -.71 -4.732 -1.406 -4.457 L -2.078 -4.176 L -6.554 -13.146 Z " fill="#ffffff"/>
<path transform="matrix(1,0,0,-1,361.4971,438.65403)" d="M 0 0 L 8.99 -2.098 L 12.03 -11.252 L 19.551 -4.562 L 28.488 -6.65 L 14.461 -17.926 L 11.692 -27.762 L 3.586 -25.877 L 6.361 -16.031 Z " fill="#ffffff"/>
<path transform="matrix(1,0,0,-1,461.002,450.6892)" d="M 0 0 L 1.947 .557 C 3.475 .996 4.466 1.537 4.91 2.189 C 5.36 2.842 5.447 3.543 5.182 4.297 C 4.925 5.027 4.437 5.559 3.712 5.912 C 2.997 6.27 1.895 6.236 .406 5.811 L -1.852 5.172 Z M -11.514 7.617 L 1.682 11.363 C 4.558 12.172 6.936 12.172 8.807 11.344 C 10.682 10.518 12.03 8.967 12.838 6.699 C 13.679 4.361 13.553 2.311 12.465 .543 C 11.373 -1.217 9.227 -2.541 6.022 -3.455 L 1.682 -4.687 L 4.761 -13.281 L -3.219 -15.553 Z " fill="#ffffff"/>
<path transform="matrix(1,0,0,-1,486.29,441.17164)" d="M 0 0 L 3.108 1.465 C 3.441 1.619 4.041 2.029 4.882 2.682 C 5.321 3.002 5.583 3.412 5.68 3.92 C 5.776 4.422 5.688 4.916 5.413 5.389 C 4.998 6.086 4.442 6.5 3.731 6.637 C 3.03 6.777 2.006 6.535 .662 5.902 L -2.576 4.375 Z M .155 -16.293 L -12.538 5.221 L -.261 11.016 C 2.021 12.088 3.862 12.736 5.269 12.953 C 6.685 13.172 8.033 12.973 9.338 12.369 C 10.639 11.77 11.688 10.773 12.494 9.406 C 13.205 8.213 13.528 7.043 13.471 5.922 C 13.423 4.789 13.064 3.717 12.388 2.711 C 11.968 2.068 11.262 1.377 10.305 .643 C 11.344 .787 12.132 .826 12.692 .754 C 13.064 .701 13.679 .512 14.539 .18 C 15.39 -.16 15.999 -.445 16.356 -.682 L 23.597 -5.221 L 15.278 -9.15 L 7.463 -4.432 C 6.462 -3.814 5.688 -3.484 5.147 -3.408 C 4.423 -3.326 3.722 -3.445 3.05 -3.76 L 2.402 -4.074 L 7.55 -12.799 Z " fill="#ffffff"/>
<path transform="matrix(1,0,0,-1,498.1562,423.58375)" d="M 0 0 L 6.762 4.371 L 22.615 -15.389 L 15.849 -19.758 Z " fill="#ffffff"/>
<path transform="matrix(1,0,0,-1,508.7314,417.35713)" d="M 0 0 L 7.748 6.939 L 22.374 -.904 L 13.712 12.268 L 21.455 19.197 L 40.571 1.914 L 35.748 -2.398 L 21.165 10.773 L 32.026 -5.732 L 27.656 -9.639 L 9.367 .223 L 23.949 -12.953 L 19.111 -17.275 Z " fill="#ffffff"/>
<path transform="matrix(1,0,0,-1,554.0684,392.83375)" d="M 0 0 L -9.764 2.563 L -3.229 -4.445 Z M 5.834 -1.594 L .682 -8.699 L 3.702 -11.898 L -.928 -18.293 L -18.058 2.688 L -13.107 9.523 L 15.07 3.775 L 10.314 -2.783 Z " fill="#ffffff"/>
<path transform="matrix(1,0,0,-1,559.8877,371.69114)" d="M 0 0 L 1.315 2.924 C 1.455 3.248 1.624 3.895 1.803 4.891 C 1.904 5.389 1.808 5.861 1.518 6.307 C 1.228 6.756 .808 7.076 .267 7.279 C -.546 7.578 -1.275 7.572 -1.914 7.279 C -2.547 6.969 -3.151 6.195 -3.722 4.93 L -5.089 1.875 Z M 11.784 -12.457 L -13.272 -3.238 L -8.091 8.336 C -7.119 10.473 -6.177 12.039 -5.269 13.02 C -4.35 14.002 -3.175 14.645 -1.754 14.93 C -.328 15.215 1.18 15.064 2.77 14.48 C 4.167 13.969 5.249 13.258 6.013 12.354 C 6.776 11.455 7.27 10.42 7.482 9.26 C 7.612 8.516 7.584 7.582 7.381 6.461 C 8.058 7.172 8.638 7.66 9.116 7.926 C 9.435 8.1 10.034 8.313 10.929 8.545 C 11.822 8.787 12.485 8.922 12.92 8.951 L 21.687 9.637 L 18.169 1.797 L 8.854 .898 C 7.646 .793 6.815 .617 6.356 .357 C 5.747 0 5.298 -.494 5.013 -1.131 L 4.737 -1.746 L 14.911 -5.486 Z " fill="#ffffff"/>
<path transform="matrix(1,0,0,-1,555.499,355.86305)" d="M 0 0 L 1.827 8.154 L 11.827 11.287 L 3.964 17.744 L 5.771 25.863 L 19.102 13.746 L 30.185 11.678 L 28.551 4.316 L 17.463 6.385 Z " fill="#ffffff"/>
<path transform="matrix(1,0,0,-1,328.9443,290.57353)" d="M 0 0 L .305 2.19 C .329 2.419 .305 2.893 .213 3.587 C .174 3.937 0 4.246 -.314 4.502 C -.619 4.754 -.986 4.909 -1.436 4.947 C -2.073 5.022 -2.596 4.909 -2.992 4.604 C -3.388 4.295 -3.649 3.671 -3.775 2.729 L -4.089 .457 Z M 11.252 -6.516 L -8.85 -4.304 L -7.675 4.321 C -7.458 5.931 -7.124 7.132 -6.685 7.946 C -6.245 8.751 -5.544 9.362 -4.577 9.783 C -3.615 10.206 -2.494 10.346 -1.218 10.206 C -.102 10.085 .836 9.783 1.59 9.302 C 2.344 8.816 2.924 8.195 3.34 7.448 C 3.596 6.97 3.775 6.334 3.886 5.534 C 4.22 6.129 4.524 6.547 4.81 6.803 C 4.998 6.978 5.389 7.219 5.984 7.511 C 6.568 7.818 7.013 8.017 7.323 8.111 L 13.485 9.977 L 12.697 4.118 L 6.177 2.023 C 5.331 1.767 4.775 1.508 4.5 1.259 C 4.138 .921 3.925 .518 3.862 .046 L 3.799 -.413 L 11.958 -1.314 Z " fill="#231f20"/>
<path transform="matrix(1,0,0,-1,323.9707,273.55735)" d="M 0 0 L 5.486 13.089 L 9.532 11.711 L 6.104 3.521 L 9.111 2.501 L 12.296 10.102 L 16.163 8.787 L 12.978 1.187 L 16.714 -.082 L 20.242 8.354 L 24.534 6.897 L 18.947 -6.426 Z " fill="#231f20"/>
<path transform="matrix(1,0,0,-1,332.7578,254.31812)" d="M 0 0 L 4.49 5.554 L 16.182 1.153 L 7.951 9.817 L 12.437 15.356 L 28.802 4.618 L 25.999 1.163 L 13.524 9.357 L 23.848 -1.494 L 21.311 -4.621 L 6.685 .906 L 19.16 -7.277 L 16.366 -10.735 Z " fill="#231f20"/>
<path transform="matrix(1,0,0,-1,351.2266,233.73023)" d="M 0 0 L 4.311 2.948 L 16.704 -1.264 L 9.947 6.776 L 14.307 9.751 L 26.521 -4.785 L 22.166 -7.753 L 9.85 -3.586 L 16.559 -11.569 L 12.209 -14.529 Z " fill="#231f20"/>
<path transform="matrix(1,0,0,-1,386.6406,227.65454)" d="M 0 0 L -4.602 5.411 L -3.833 -1.361 Z M 2.726 -3.268 L -3.393 -5.445 L -3.026 -8.541 L -8.526 -10.498 L -9.406 8.787 L -3.523 10.873 L 10.479 -3.753 L 4.823 -5.757 Z " fill="#231f20"/>
<path transform="matrix(1,0,0,-1,395.877,213.28244)" d="M 0 0 L 5.389 .457 L 13.485 -8.976 L 12.427 1.063 L 17.869 1.529 L 19.783 -16.617 L 14.341 -17.079 L 6.298 -7.717 L 7.347 -17.681 L 1.919 -18.145 Z " fill="#231f20"/>
<path transform="matrix(1,0,0,-1,420.5176,212.00904)" d="M 0 0 L 17.352 -2.75 L 16.482 -7.183 L 10.662 -6.252 L 8.014 -19.776 L 2.306 -18.867 L 4.949 -5.353 L -.875 -4.43 Z " fill="#231f20"/>
<path transform="matrix(1,0,0,-1,464.4766,226.20243)" d="M 0 0 L 4.901 -2.757 L -1.498 -11.962 C -2.126 -12.874 -2.875 -13.654 -3.73 -14.297 C -4.586 -14.942 -5.543 -15.399 -6.592 -15.65 C -7.637 -15.907 -8.594 -15.96 -9.449 -15.819 C -10.643 -15.619 -11.914 -15.152 -13.248 -14.396 C -14.021 -13.959 -14.828 -13.439 -15.674 -12.813 C -16.51 -12.189 -17.134 -11.549 -17.53 -10.892 C -17.926 -10.234 -18.178 -9.476 -18.294 -8.613 C -18.404 -7.743 -18.332 -6.96 -18.101 -6.237 C -17.719 -5.092 -17.264 -4.132 -16.732 -3.374 L -10.343 5.836 L -5.432 3.067 L -11.991 -6.354 C -12.576 -7.197 -12.793 -7.989 -12.639 -8.734 C -12.484 -9.48 -11.981 -10.095 -11.136 -10.573 C -10.285 -11.051 -9.463 -11.191 -8.651 -10.993 C -7.844 -10.803 -7.143 -10.271 -6.554 -9.416 Z " fill="#231f20"/>
<path transform="matrix(1,0,0,-1,475.7002,233.75714)" d="M 0 0 L 3.62 -3.625 L .029 -15.097 L 8.348 -8.34 L 12.016 -11.999 L -3.035 -24.198 L -6.689 -20.549 L -3.137 -9.149 L -11.393 -15.851 L -15.046 -12.202 Z " fill="#231f20"/>
<path transform="matrix(1,0,0,-1,491.4814,251.28052)" d="M 0 0 L 2.963 -4.504 L -14.477 -13.782 L -17.425 -9.285 Z " fill="#231f20"/>
<path transform="matrix(1,0,0,-1,497.3486,260.15214)" d="M 0 0 L 6.124 -14.882 L 1.436 -16.438 L -.618 -11.455 L -14.921 -16.218 L -16.936 -11.334 L -2.639 -6.556 L -4.698 -1.566 Z " fill="#231f20"/>
<path transform="matrix(1,0,0,-1,504.6758,278.92503)" d="M 0 0 L .755 -5.756 L -5.597 -9.855 L 1.634 -12.521 L 2.374 -18.251 L -10.164 -12.953 L -18.579 -13.843 L -19.261 -8.649 L -10.836 -7.76 Z " fill="#231f20"/>
<path transform="matrix(1,0,0,-1,335.2231,308.99583)" d="M 0 0 L 1.45 -5.908 L -16.342 -10.92 L -17.787 -5.018 Z " fill="#231f20"/>
<path transform="matrix(1,0,0,-1,337.0693,317.84745)" d="M 0 0 L 2.334 -5.115 L -3.741 -16.594 L 5.389 -11.775 L 7.763 -16.928 L -8.758 -25.633 L -11.117 -20.475 L -5.094 -9.068 L -14.157 -13.854 L -16.516 -8.705 Z " fill="#231f20"/>
<path transform="matrix(1,0,0,-1,345.2959,335.48023)" d="M 0 0 L 11.155 -14.152 L 7.68 -17.309 L 3.939 -12.557 L -6.636 -22.146 L -10.305 -17.486 L .275 -7.898 L -3.466 -3.15 Z " fill="#231f20"/>
<path transform="matrix(1,0,0,-1,357.3066,350.30836)" d="M 0 0 L 12.117 -9.898 L 9.734 -13.248 L 2.151 -7.047 L .377 -9.551 L 7.415 -15.293 L 5.143 -18.492 L -1.895 -12.742 L -4.094 -15.84 L 3.712 -22.225 L 1.194 -25.777 L -11.146 -15.695 Z " fill="#231f20"/>
<path transform="matrix(1,0,0,-1,373.0972,371.08375)" d="M 0 0 L 2.185 -1.072 C 2.417 -1.193 2.915 -1.334 3.654 -1.498 C 4.031 -1.604 4.394 -1.545 4.737 -1.352 C 5.085 -1.15 5.341 -.859 5.505 -.479 C 5.757 .107 5.771 .635 5.568 1.123 C 5.351 1.592 4.78 2.061 3.833 2.523 L 1.566 3.645 Z M -9.744 -8.109 L -2.069 9.822 L 6.535 5.578 C 8.135 4.795 9.294 4.041 10.01 3.336 C 10.721 2.625 11.18 1.75 11.349 .697 C 11.528 -.348 11.373 -1.449 10.885 -2.59 C 10.455 -3.586 9.894 -4.34 9.184 -4.867 C 8.478 -5.398 7.685 -5.717 6.806 -5.828 C 6.245 -5.887 5.53 -5.828 4.688 -5.635 C 5.206 -6.156 5.563 -6.602 5.747 -6.959 C 5.873 -7.201 6.013 -7.65 6.167 -8.313 C 6.322 -8.971 6.404 -9.457 6.419 -9.781 L 6.689 -16.201 L .855 -13.33 L .44 -6.49 C .396 -5.615 .285 -4.996 .102 -4.648 C -.155 -4.195 -.522 -3.846 -.991 -3.615 L -1.445 -3.383 L -4.567 -10.662 Z " fill="#231f20"/>
<path transform="matrix(1,0,0,-1,387.7666,369.28883)" d="M 0 0 L 5.206 -1.127 L 9.986 -13.297 L 11.997 -2.586 L 17.25 -3.727 L 13.616 -23.07 L 8.367 -21.936 L 3.605 -9.852 L 1.604 -20.471 L -3.625 -19.35 Z " fill="#231f20"/>
<path transform="matrix(1,0,0,-1,417.4194,385.04664)" d="M 0 0 L -2.189 7.043 L -4.041 -.102 Z M 1.276 -4.229 L -5.177 -4.393 L -5.999 -7.68 L -11.798 -7.824 L -5.327 12.068 L .86 12.234 L 8.217 -7.303 L 2.267 -7.467 Z " fill="#231f20"/>
<path transform="matrix(1,0,0,-1,422.5957,372.84153)" d="M 0 0 L 16.883 3.973 L 17.84 -.789 L 12.186 -2.113 L 15.148 -16.627 L 9.595 -17.941 L 6.637 -3.418 L .972 -4.756 Z " fill="#231f20"/>
<path transform="matrix(1,0,0,-1,440.9385,367.8825)" d="M 0 0 L 5.298 2.242 L 12.045 -16.115 L 6.753 -18.357 Z " fill="#231f20"/>
<path transform="matrix(1,0,0,-1,458.0781,370.42555)" d="M 0 0 C .98 -1.691 1.977 -2.717 2.996 -3.064 C 4.007 -3.422 5.017 -3.252 6.021 -2.59 C 7.07 -1.895 7.655 -1 7.811 .105 C 7.965 1.209 7.491 2.697 6.418 4.572 C 5.5 6.152 4.543 7.109 3.537 7.443 C 2.518 7.771 1.493 7.607 .479 6.932 C -.498 6.289 -1.059 5.398 -1.232 4.264 C -1.393 3.133 -.981 1.711 0 0 M -4.839 -3.186 C -6.419 -.445 -6.941 2.156 -6.4 4.635 C -5.858 7.105 -4.312 9.184 -1.774 10.861 C .826 12.592 3.267 13.176 5.543 12.615 C 7.811 12.045 9.734 10.412 11.29 7.709 C 12.416 5.752 13.045 3.934 13.146 2.271 C 13.263 .609 12.929 -.957 12.18 -2.426 C 11.411 -3.896 10.159 -5.211 8.424 -6.355 C 6.665 -7.531 5.026 -8.197 3.523 -8.361 C 2.02 -8.525 .536 -8.197 -.937 -7.365 C -2.412 -6.535 -3.713 -5.143 -4.839 -3.186 " fill="#231f20"/>
<path transform="matrix(1,0,0,-1,465.6328,353.45094)" d="M 0 0 L 3.688 4.09 L 15.829 1.855 L 8.501 9.436 L 12.228 13.568 L 25.447 -.145 L 21.73 -4.271 L 9.676 -2.068 L 16.945 -9.59 L 13.229 -13.713 Z " fill="#231f20"/>
<path transform="matrix(1,0,0,-1,493.8154,334.92945)" d="M 0 0 L -6.747 1.645 L -2.001 -3.75 Z M 4.031 -1.023 L .832 -7.033 L 3.012 -9.482 L .126 -14.881 L -12.388 1.363 L -9.309 7.135 L 10.097 3.75 L 7.134 -1.787 Z " fill="#231f20"/>
<path transform="matrix(1,0,0,-1,487.6777,321.00364)" d="M 0 0 L 1.609 5.846 L 14.906 1.648 L 17.414 10.768 L 21.76 9.391 L 17.651 -5.578 Z " fill="#231f20"/>
<path transform="matrix(1,0,0,-1,233.1133,389.89436)" d="M 0 0 L 4.877 -8.875 L -6.844 -19.383 L 8.618 -15.689 L 13.49 -24.562 L -8.865 -36.221 L -11.9 -30.687 L 5.143 -21.799 L -14.239 -26.43 L -16.984 -21.432 L -2.272 -8.295 L -19.31 -17.174 L -22.345 -11.658 Z " fill="#231f20"/>
<path transform="matrix(1,0,0,-1,244.7715,437.26545)" d="M 0 0 L 5.52 7.572 L -3.394 4.314 Z M -3.354 -4.52 L -8.778 2.373 L -12.853 .855 L -17.724 7.041 L 8.192 14.717 L 13.398 8.09 L -.899 -14.352 L -5.902 -7.99 Z " fill="#231f20"/>
<path transform="matrix(1,0,0,-1,264.8296,437.28105)" d="M 0 0 L 5.631 -5.326 L -1.034 -12.035 L 11.538 -10.914 L 19.029 -17.994 L 5.718 -18.4 L 1.697 -36.037 L -5.244 -29.482 L -1.836 -18.541 L -7.695 -18.758 L -11.997 -23.084 L -17.632 -17.768 Z " fill="#231f20"/>
<path transform="matrix(1,0,0,-1,285.9419,456.30445)" d="M 0 0 L 6.201 -4.719 L -9.357 -24.244 L -15.559 -19.527 Z " fill="#231f20"/>
<path transform="matrix(1,0,0,-1,295.71,463.97044)" d="M 0 0 L 6.226 -3.77 L 6.951 -20.314 L 14.341 -8.691 L 20.619 -12.5 L 7.27 -33.516 L .991 -29.711 L .251 -13.273 L -7.085 -24.814 L -13.35 -21.016 Z " fill="#231f20"/>
<path transform="matrix(1,0,0,-1,324.9277,497.67366)" d="M 0 0 L 2.117 4.713 L 13.21 -.053 L 8.869 -9.705 C 6.119 -10.213 3.809 -10.367 1.943 -10.174 C .082 -9.98 -1.977 -9.41 -4.21 -8.443 C -6.965 -7.266 -9.009 -5.834 -10.333 -4.172 C -11.658 -2.518 -12.393 -.566 -12.533 1.658 C -12.678 3.881 -12.224 6.162 -11.165 8.512 C -10.053 10.986 -8.56 12.92 -6.694 14.293 C -4.833 15.674 -2.678 16.4 -.232 16.492 C 1.672 16.539 3.954 15.998 6.617 14.848 C 9.184 13.75 11.001 12.697 12.069 11.697 C 13.137 10.695 13.877 9.545 14.288 8.23 C 14.708 6.916 14.79 5.437 14.554 3.789 L 7.086 5.562 C 7.187 6.539 6.999 7.4 6.525 8.145 C 6.042 8.898 5.273 9.488 4.215 9.941 C 2.649 10.619 1.155 10.629 -.261 9.961 C -1.672 9.295 -2.9 7.807 -3.939 5.5 C -5.036 3.049 -5.351 1.098 -4.882 -.357 C -4.403 -1.812 -3.32 -2.914 -1.629 -3.641 C -.826 -3.979 -.01 -4.201 .822 -4.277 C 1.653 -4.365 2.659 -4.336 3.838 -4.201 L 4.805 -2.064 Z " fill="#231f20"/>
<path transform="matrix(1,0,0,-1,356.5093,492.30445)" d="M 0 0 L 20.459 -4.668 L 19.237 -9.811 L 6.418 -6.893 L 5.51 -10.721 L 17.395 -13.436 L 16.221 -18.348 L 4.34 -15.641 L 3.214 -20.377 L 16.385 -23.393 L 15.085 -28.855 L -5.742 -24.094 Z " fill="#231f20"/>
<path transform="matrix(1,0,0,-1,380.4395,497.47044)" d="M 0 0 L 7.781 -.895 L 5.578 -19.426 L 17.729 -20.818 L 17.013 -26.879 L -2.919 -24.588 Z " fill="#231f20"/>
<path transform="matrix(1,0,0,-1,403.3447,499.7282)" d="M 0 0 L 7.854 -.193 L 7.279 -24.939 L -.57 -24.746 Z " fill="#231f20"/>
<path transform="matrix(1,0,0,-1,414.2534,500.27903)" d="M 0 0 L 23.786 1.305 L 24.143 -4.799 L 16.167 -5.24 L 17.27 -23.838 L 9.454 -24.273 L 8.342 -5.664 L .368 -6.1 Z " fill="#231f20"/>
<path transform="matrix(1,0,0,-1,440.4023,498.61695)" d="M 0 0 L 20.682 3.539 L 21.629 -1.662 L 8.676 -3.881 L 9.387 -7.762 L 21.388 -5.703 L 22.296 -10.672 L 10.285 -12.73 L 11.165 -17.539 L 24.476 -15.254 L 25.486 -20.773 L 4.437 -24.383 Z " fill="#231f20"/>
<path transform="matrix(1,0,0,-1,475.3086,491.26936)" d="M 0 0 L 7.366 2.59 L 13.867 -14.969 L 25.37 -10.928 L 27.492 -16.666 L 8.618 -23.287 Z " fill="#231f20"/>
<path transform="matrix(1,0,0,-1,496.3672,483.68534)" d="M 0 0 L 18.769 9.148 L 21.199 4.422 L 9.445 -1.314 L 11.258 -4.824 L 22.156 .488 L 24.481 -4.031 L 13.572 -9.354 L 15.811 -13.709 L 27.908 -7.811 L 30.479 -12.828 L 11.373 -22.152 Z " fill="#231f20"/>
<path transform="matrix(1,0,0,-1,538.4033,477.99784)" d="M 0 0 L -7.429 5.85 L -4.615 -3.045 Z M 4.423 -3.557 L -2.958 -8.404 L -1.629 -12.469 L -8.25 -16.828 L -14.577 8.885 L -7.496 13.559 L 14.611 -1.777 L 7.815 -6.254 Z " fill="#231f20"/>
<path transform="matrix(1,0,0,-1,549.3555,457.40605)" d="M 0 0 L 9.275 -10.064 L 10.701 -8.807 C 11.92 -7.748 12.659 -6.855 12.935 -6.139 C 13.2 -5.424 13.182 -4.607 12.872 -3.703 C 12.548 -2.785 11.722 -1.592 10.358 -.117 C 8.565 1.836 6.999 2.885 5.685 3.035 C 4.37 3.189 2.959 2.6 1.45 1.275 Z M -9.671 -.93 L -1.015 6.65 C .687 8.148 2.277 9.129 3.741 9.598 C 5.206 10.072 6.676 10.188 8.135 9.945 C 9.604 9.686 11.006 9.145 12.345 8.293 C 13.688 7.443 14.945 6.379 16.096 5.133 C 17.913 3.16 19.102 1.43 19.634 -.055 C 20.17 -1.537 20.378 -3.018 20.242 -4.453 C 20.103 -5.898 19.682 -7.164 18.962 -8.217 C 18 -9.672 16.995 -10.867 15.96 -11.766 L 7.304 -19.354 Z " fill="#231f20"/>
<path transform="matrix(1,0,0,-1,558.8584,441.09934)" d="M 0 0 L 13.523 15.66 L 17.671 12.248 L 9.203 2.445 L 12.291 -.096 L 20.141 9 L 24.095 5.742 L 16.245 -3.354 L 20.078 -6.496 L 28.783 3.586 L 33.177 -.033 L 19.411 -15.979 Z " fill="#231f20"/>
<path transform="matrix(1,0,0,-1,587.2549,421.6306)" d="M 0 0 L 1.739 2.73 C 1.928 3.025 2.194 3.664 2.547 4.631 C 2.73 5.113 2.73 5.602 2.537 6.096 C 2.349 6.584 2.024 6.971 1.551 7.26 C .855 7.686 .184 7.801 -.46 7.598 C -1.112 7.391 -1.808 6.699 -2.567 5.516 L -4.375 2.668 Z M 8.646 -14.32 L -12.891 -1.199 L -5.984 9.609 C -4.708 11.615 -3.558 13.041 -2.528 13.877 C -1.494 14.732 -.295 15.182 1.072 15.254 C 2.436 15.322 3.804 14.936 5.186 14.104 C 6.375 13.369 7.25 12.494 7.796 11.475 C 8.347 10.445 8.612 9.338 8.604 8.145 C 8.589 7.377 8.386 6.447 7.999 5.346 C 8.753 5.959 9.381 6.355 9.864 6.545 C 10.198 6.676 10.798 6.797 11.667 6.893 C 12.532 6.99 13.176 7.033 13.581 6.99 L 21.827 6.332 L 17.148 -.996 L 8.347 -.459 C 7.226 -.387 6.418 -.436 5.949 -.619 C 5.307 -.889 4.809 -1.314 4.432 -1.904 L 4.064 -2.484 L 12.799 -7.801 Z " fill="#231f20"/>
<path transform="matrix(1,0,0,-1,602.8564,408.94703)" d="M 0 0 L 2.538 6.854 C 3.707 6.525 4.679 6.457 5.462 6.66 C 6.729 6.984 7.651 7.811 8.256 9.154 C 8.7 10.164 8.802 11.029 8.561 11.779 C 8.318 12.527 7.879 13.031 7.245 13.301 C 6.637 13.557 5.984 13.533 5.278 13.215 C 4.577 12.904 3.597 11.898 2.33 10.188 C .266 7.414 -1.652 5.625 -3.412 4.814 C -5.177 3.982 -6.96 3.967 -8.787 4.736 C -9.985 5.248 -10.957 6.064 -11.721 7.187 C -12.489 8.318 -12.871 9.695 -12.876 11.305 C -12.881 12.92 -12.363 14.906 -11.314 17.273 C -10.024 20.164 -8.492 22.146 -6.704 23.209 C -4.935 24.254 -2.765 24.418 -.222 23.678 L -2.765 16.902 C -3.891 17.168 -4.818 17.129 -5.544 16.762 C -6.269 16.404 -6.849 15.727 -7.293 14.742 C -7.651 13.92 -7.748 13.225 -7.573 12.662 C -7.409 12.102 -7.062 11.715 -6.554 11.504 C -6.187 11.338 -5.775 11.377 -5.331 11.59 C -4.872 11.783 -4.238 12.445 -3.427 13.582 C -1.387 16.352 .275 18.26 1.552 19.289 C 2.828 20.318 4.123 20.918 5.418 21.088 C 6.714 21.256 7.999 21.072 9.261 20.541 C 10.755 19.908 11.953 18.918 12.861 17.584 C 13.761 16.24 14.215 14.703 14.225 12.982 C 14.239 11.266 13.751 9.309 12.77 7.115 C 11.059 3.248 9.111 .898 6.932 .057 C 4.742 -.783 2.437 -.803 0 0 " fill="#231f20"/>
<path transform="matrix(1,0,0,-1,405.9014,453.97044)" d="M 0 0 L -1.503 0 L -1.503 9.57 C -1.871 9.227 -2.339 8.879 -2.929 8.535 C -3.514 8.193 -4.045 7.932 -4.51 7.758 L -4.51 9.213 C -3.673 9.609 -2.934 10.088 -2.311 10.648 C -1.687 11.199 -1.237 11.75 -.972 12.287 L 0 12.287 Z " fill="#ffffff"/>
<path transform="matrix(1,0,0,-1,416.124,445.74006)" d="M 0 0 C 0 .852 -.227 1.543 -.687 2.051 C -1.146 2.553 -1.696 2.805 -2.339 2.805 C -3.011 2.805 -3.596 2.539 -4.089 1.992 C -4.587 1.451 -4.838 .74 -4.838 -.129 C -4.838 -.908 -4.592 -1.545 -4.123 -2.029 C -3.654 -2.512 -3.074 -2.76 -2.383 -2.76 C -1.687 -2.76 -1.121 -2.512 -.677 -2.029 C -.222 -1.545 0 -.869 0 0 M -6.153 -5.402 L -4.708 -5.268 C -4.587 -5.953 -4.35 -6.447 -4.007 -6.752 C -3.664 -7.061 -3.214 -7.211 -2.678 -7.211 C -2.219 -7.211 -1.812 -7.104 -1.464 -6.891 C -1.116 -6.684 -.831 -6.395 -.609 -6.041 C -.382 -5.693 -.198 -5.215 -.048 -4.609 C .106 -4.012 .179 -3.393 .179 -2.77 C .179 -2.705 .174 -2.609 .164 -2.475 C -.13 -2.947 -.542 -3.344 -1.059 -3.639 C -1.581 -3.934 -2.146 -4.084 -2.755 -4.084 C -3.765 -4.084 -4.621 -3.711 -5.321 -2.986 C -6.022 -2.246 -6.38 -1.275 -6.38 -.076 C -6.38 1.16 -6.008 2.162 -5.278 2.916 C -4.543 3.674 -3.63 4.057 -2.523 4.057 C -1.735 4.057 -1.005 3.838 -.343 3.408 C .314 2.988 .817 2.369 1.155 1.576 C 1.503 .783 1.672 -.367 1.672 -1.865 C 1.672 -3.432 1.503 -4.668 1.165 -5.602 C .817 -6.529 .319 -7.24 -.353 -7.723 C -1.024 -8.207 -1.812 -8.447 -2.711 -8.447 C -3.668 -8.447 -4.452 -8.182 -5.051 -7.646 C -5.665 -7.123 -6.027 -6.369 -6.153 -5.402 " fill="#ffffff"/>
<path transform="matrix(1,0,0,-1,425.6367,445.74006)" d="M 0 0 C 0 .852 -.232 1.543 -.691 2.051 C -1.141 2.553 -1.702 2.805 -2.345 2.805 C -3.017 2.805 -3.597 2.539 -4.095 1.992 C -4.587 1.451 -4.839 .74 -4.839 -.129 C -4.839 -.908 -4.597 -1.545 -4.128 -2.029 C -3.659 -2.512 -3.08 -2.76 -2.389 -2.76 C -1.687 -2.76 -1.122 -2.512 -.668 -2.029 C -.223 -1.545 0 -.869 0 0 M -6.153 -5.402 L -4.713 -5.268 C -4.587 -5.953 -4.355 -6.447 -4.012 -6.752 C -3.669 -7.061 -3.22 -7.211 -2.684 -7.211 C -2.225 -7.211 -1.812 -7.104 -1.47 -6.891 C -1.122 -6.684 -.832 -6.395 -.609 -6.041 C -.387 -5.693 -.203 -5.215 -.049 -4.609 C .101 -4.012 .174 -3.393 .174 -2.77 C .174 -2.705 .174 -2.609 .164 -2.475 C -.131 -2.947 -.547 -3.344 -1.068 -3.639 C -1.586 -3.934 -2.146 -4.084 -2.761 -4.084 C -3.771 -4.084 -4.626 -3.711 -5.327 -2.986 C -6.023 -2.246 -6.381 -1.275 -6.381 -.076 C -6.381 1.16 -6.013 2.162 -5.279 2.916 C -4.544 3.674 -3.631 4.057 -2.528 4.057 C -1.73 4.057 -1.006 3.838 -.349 3.408 C .318 2.988 .816 2.369 1.159 1.576 C 1.502 .783 1.672 -.367 1.672 -1.865 C 1.672 -3.432 1.502 -4.668 1.159 -5.602 C .821 -6.529 .318 -7.24 -.358 -7.723 C -1.025 -8.207 -1.812 -8.447 -2.712 -8.447 C -3.669 -8.447 -4.457 -8.182 -5.056 -7.646 C -5.67 -7.123 -6.023 -6.369 -6.153 -5.402 " fill="#ffffff"/>
<path transform="matrix(1,0,0,-1,428.8691,443.34153)" d="M 0 0 L 0 1.449 L 7.918 1.449 L 7.918 .279 C 7.145 -.551 6.376 -1.658 5.612 -3.031 C 4.844 -4.404 4.244 -5.82 3.834 -7.275 C 3.529 -8.295 3.34 -9.42 3.254 -10.629 L 1.701 -10.629 C 1.73 -9.672 1.914 -8.512 2.281 -7.148 C 2.64 -5.781 3.156 -4.467 3.834 -3.199 C 4.515 -1.934 5.226 -.865 5.994 0 Z " fill="#ffffff"/>
<path transform="matrix(1,0,0,-1,393.1895,470.56425)" d="M 0 0 L 1.522 .131 C 1.595 -.479 1.76 -.984 2.03 -1.381 C 2.291 -1.768 2.707 -2.082 3.258 -2.324 C 3.818 -2.566 4.442 -2.686 5.143 -2.686 C 5.757 -2.686 6.308 -2.59 6.776 -2.416 C 7.25 -2.223 7.608 -1.977 7.83 -1.652 C 8.058 -1.334 8.183 -.984 8.183 -.613 C 8.183 -.227 8.067 .117 7.85 .396 C 7.618 .687 7.255 .924 6.743 1.123 C 6.414 1.248 5.684 1.441 4.563 1.721 C 3.441 1.992 2.654 2.244 2.199 2.484 C 1.619 2.785 1.18 3.162 .895 3.625 C .604 4.07 .464 4.582 .464 5.145 C .464 5.768 .638 6.332 .991 6.879 C 1.339 7.416 1.852 7.82 2.528 8.102 C 3.195 8.383 3.949 8.512 4.775 8.512 C 5.68 8.512 6.486 8.373 7.173 8.082 C 7.869 7.787 8.396 7.357 8.768 6.787 C 9.14 6.217 9.343 5.578 9.372 4.863 L 7.816 4.748 C 7.733 5.512 7.453 6.1 6.97 6.496 C 6.491 6.893 5.781 7.086 4.838 7.086 C 3.857 7.086 3.146 6.902 2.692 6.555 C 2.248 6.187 2.03 5.752 2.03 5.26 C 2.03 4.811 2.185 4.453 2.504 4.178 C 2.818 3.877 3.625 3.588 4.94 3.293 C 6.264 2.998 7.158 2.736 7.651 2.514 C 8.367 2.182 8.894 1.775 9.227 1.268 C 9.575 .764 9.739 .184 9.739 -.473 C 9.739 -1.125 9.556 -1.738 9.184 -2.309 C 8.807 -2.898 8.27 -3.334 7.579 -3.658 C 6.878 -3.977 6.09 -4.146 5.215 -4.146 C 4.113 -4.146 3.176 -3.977 2.432 -3.648 C 1.687 -3.334 1.098 -2.846 .672 -2.193 C .242 -1.551 .02 -.816 0 0 " fill="#ffffff"/>
<path transform="matrix(1,0,0,-1,0,595.28)" d="M 405.418 133.021 L 407.037 133.021 L 407.037 120.783 L 405.418 120.783 Z " fill="#ffffff"/>
<path transform="matrix(1,0,0,-1,409.8794,474.49784)" d="M 0 0 L 0 12.238 L 1.658 12.238 L 8.082 2.629 L 8.082 12.238 L 9.643 12.238 L 9.643 0 L 7.98 0 L 1.551 9.629 L 1.551 0 Z " fill="#ffffff"/>
<path transform="matrix(1,0,0,-1,430.9824,470.20484)" d="M 0 0 L 1.613 -.412 C 1.275 -1.74 .662 -2.756 -.219 -3.447 C -1.098 -4.152 -2.186 -4.506 -3.451 -4.506 C -4.775 -4.506 -5.844 -4.225 -6.676 -3.693 C -7.497 -3.152 -8.131 -2.379 -8.556 -1.354 C -8.991 -.34 -9.203 .748 -9.203 1.922 C -9.203 3.199 -8.962 4.311 -8.474 5.258 C -7.99 6.195 -7.294 6.926 -6.395 7.418 C -5.501 7.906 -4.51 8.152 -3.432 8.152 C -2.209 8.152 -1.176 7.848 -.339 7.221 C .492 6.592 1.077 5.732 1.401 4.592 L -.189 4.213 C -.475 5.104 -.881 5.756 -1.422 6.162 C -1.963 6.568 -2.645 6.775 -3.461 6.775 C -4.404 6.775 -5.191 6.543 -5.82 6.1 C -6.458 5.635 -6.893 5.035 -7.154 4.287 C -7.41 3.518 -7.545 2.734 -7.545 1.932 C -7.545 .889 -7.391 -.02 -7.086 -.793 C -6.777 -1.572 -6.303 -2.152 -5.67 -2.543 C -5.027 -2.92 -4.336 -3.113 -3.587 -3.113 C -2.684 -3.113 -1.914 -2.848 -1.281 -2.326 C -.658 -1.799 -.228 -1.031 0 0 " fill="#ffffff"/>
<path transform="matrix(1,0,0,-1,434.626,474.49784)" d="M 0 0 L 0 12.238 L 8.851 12.238 L 8.851 10.797 L 1.619 10.797 L 1.619 7.047 L 8.392 7.047 L 8.392 5.607 L 1.619 5.607 L 1.619 1.445 L 9.13 1.445 L 9.13 0 Z " fill="#ffffff"/>
<path transform="matrix(1,0,0,-1,480.4131,302.90013)" d="M 0 0 C 0 -34.648 -29.522 -62.74 -65.957 -62.74 C -102.371 -62.74 -131.908 -34.648 -131.908 0 C -131.908 34.65 -102.371 62.742 -65.957 62.742 C -29.522 62.742 0 34.65 0 0 " fill="#ffffff"/>
<path transform="matrix(1,0,0,-1,622.5283,320.3806)" d="M 0 0 C -7.361 0 -13.32 8.102 -13.32 18.086 C -13.32 28.067 -7.361 36.166 0 36.166 C 7.356 36.166 13.321 28.067 13.321 18.086 C 13.321 8.102 7.356 0 0 0 " fill="#231f20"/>
<path transform="matrix(1,0,0,-1,636.1631,290.65553)" d="M 0 0 C 0 0 12.345 -2.325 22.761 3.925 C 22.761 3.925 46.764 12.494 49.683 -11.424 C 49.683 -11.424 46.797 -33.989 20.436 -24.084 C 20.436 -24.084 8.154 -18.532 1.155 -21.723 C 1.155 -21.723 2.659 -8.36 0 0 " fill="#231f20"/>
<path transform="matrix(1,0,0,-1,0,595.28)" d="M 652.646 295.071 L 675.464 295.071 L 675.464 292.48103 L 652.646 292.48103 Z " fill="#ffffff"/>
<path transform="matrix(1,0,0,-1,0,595.28)" d="M 667.687 301.294 L 670.278 301.294 L 670.278 286.77003 L 667.687 286.77003 Z " fill="#ffffff"/>
<path transform="matrix(1,0,0,-1,207.8057,285.05104)" d="M 0 0 C 7.356 0 13.321 -8.099 13.321 -18.087 C 13.321 -28.072 7.356 -36.171 0 -36.171 C -7.366 -36.171 -13.326 -28.072 -13.326 -18.087 C -13.326 -8.099 -7.366 0 0 0 " fill="#231f20"/>
<path transform="matrix(1,0,0,-1,194.1753,314.78684)" d="M 0 0 C 0 0 -12.354 2.332 -22.77 -3.922 C -22.77 -3.922 -46.782 -12.486 -49.687 11.434 C -49.687 11.434 -46.806 33.997 -20.45 24.095 C -20.45 24.095 -8.173 18.542 -1.165 21.732 C -1.165 21.732 -2.668 8.367 0 0 " fill="#231f20"/>
<path transform="matrix(1,0,0,-1,0,595.28)" d="M 177.684 290.054 L 154.866 290.054 L 154.866 292.64799 L 177.684 292.64799 Z " fill="#ffffff"/>
<path transform="matrix(1,0,0,-1,0,595.28)" d="M 162.652 283.837 L 160.056 283.837 L 160.056 298.353 L 162.652 298.353 Z " fill="#ffffff"/>
<path transform="matrix(1,0,0,-1,434.7852,104.47873)" d="M 0 0 C 0 -7.363 -8.1 -13.323 -18.086 -13.323 C -28.072 -13.323 -36.167 -7.363 -36.167 0 C -36.167 7.354 -28.072 13.328 -18.086 13.328 C -8.1 13.328 0 7.354 0 0 " fill="#231f20"/>
<path transform="matrix(1,0,0,-1,405.0508,90.84592)" d="M 0 0 C 0 0 2.334 12.344 -3.925 22.763 C -3.925 22.763 -12.484 46.763 11.431 49.687 C 11.431 49.687 33.998 46.79 24.094 20.438 C 24.094 20.438 18.536 8.161 21.73 1.16 C 21.73 1.16 8.362 2.666 0 0 " fill="#231f20"/>
<path transform="matrix(1,0,0,-1,0,595.28)" d="M 417.207 520.916 L 414.607 520.916 L 414.607 543.732 L 417.207 543.732 Z " fill="#ffffff"/>
<path transform="matrix(1,0,0,-1,0,595.28)" d="M 408.391 538.55 L 422.906 538.55 L 422.906 535.957 L 408.391 535.957 Z " fill="#ffffff"/>
<path transform="matrix(1,0,0,-1,399.1055,171.16483)" d="M 0 0 L 0 -28.123 C 0 -28.123 19.624 -25.257 33.408 -28.345 L 33.408 0 C 33.408 0 7.729 2.646 0 0 " fill="#231f20"/>
<path transform="matrix(1,0,0,-1,432.5137,432.79463)" d="M 0 0 L 0 28.109 C 0 28.109 -19.628 25.258 -33.408 28.342 L -33.408 0 C -33.408 0 -7.729 -2.648 0 0 " fill="#231f20"/>
<path transform="matrix(1,0,0,-1,549.5928,285.93095)" d="M 0 0 L -28.12 0 C -28.12 0 -25.259 -19.625 -28.353 -33.401 L 0 -33.401 C 0 -33.401 2.648 -7.724 0 0 " fill="#231f20"/>
<path transform="matrix(1,0,0,-1,280.7461,319.33183)" d="M 0 0 L 28.13 0 C 28.13 0 25.264 19.613 28.348 33.401 L 0 33.401 C 0 33.401 -2.639 7.719 0 0 " fill="#231f20"/>
<path transform="matrix(1,0,0,-1,399.1055,241.87232)" d="M 0 0 C 0 0 15.158 5.474 33.408 -.225 L 33.408 -42.069 C 33.408 -42.069 22.089 -33.065 0 -40.066 Z " fill="#231f20"/>
<path transform="matrix(1,0,0,-1,432.5137,364.22434)" d="M 0 0 C 0 0 -15.152 -5.461 -33.408 .236 L -33.408 42.074 C -33.408 42.074 -22.093 33.08 0 40.078 Z " fill="#231f20"/>
<path transform="matrix(1,0,0,-1,350.0034,288.5598)" d="M 0 0 C 0 0 -6.525 -21.422 1.605 -33.401 L 43.563 -33.59 L 43.563 .507 Z " fill="#231f20"/>
<path transform="matrix(1,0,0,-1,478.5234,288.22874)" d="M 0 0 C 0 0 4.089 -22.285 -1.276 -33.921 L -41.964 -33.921 L -43.346 .176 Z " fill="#231f20"/>
<path transform="matrix(1,0,0,-1,449.9727,302.90013)" d="M 0 0 C 0 -17.992 -15.506 -32.58 -34.642 -32.58 C -53.776 -32.58 -69.292 -17.992 -69.292 0 C -69.292 17.997 -53.776 32.579 -34.642 32.579 C -15.506 32.579 0 17.997 0 0 " fill="#ed1c24"/>
<path transform="matrix(1,0,0,-1,403.499,300.22633)" d="M 0 0 L 3.988 0 C 6.564 0 8.178 .131 8.826 .406 C 9.459 .682 9.967 1.154 10.329 1.823 C 10.691 2.502 10.875 3.345 10.875 4.351 C 10.875 5.477 10.634 6.388 10.155 7.082 C 9.677 7.778 9 8.22 8.135 8.396 C 7.686 8.476 6.385 8.512 4.2 8.512 L 0 8.512 Z M -5.379 -19.377 L -5.379 14.194 L 5.95 14.194 C 8.797 14.194 10.866 13.892 12.151 13.292 C 13.442 12.686 14.476 11.613 15.254 10.076 C 16.032 8.524 16.419 6.765 16.419 4.784 C 16.419 2.26 15.83 .184 14.655 -1.453 C 13.485 -3.105 11.721 -4.137 9.387 -4.557 C 10.547 -5.418 11.509 -6.357 12.272 -7.379 C 13.021 -8.4 14.046 -10.215 15.327 -12.83 L 18.589 -19.377 L 12.151 -19.377 L 8.256 -12.076 C 6.868 -9.465 5.926 -7.82 5.414 -7.133 C 4.911 -6.459 4.37 -5.984 3.804 -5.744 C 3.234 -5.488 2.325 -5.359 1.088 -5.359 L 0 -5.359 L 0 -19.377 Z " fill="#231f20"/>
<path transform="matrix(1,0,0,-1,433.8145,295.28834)" d="M 0 0 L 0 -5.124 L -3.5 -5.124 L -3.5 -14.93 C -3.5 -16.909 -3.461 -18.073 -3.394 -18.393 C -3.33 -18.725 -3.176 -18.995 -2.934 -19.208 C -2.707 -19.424 -2.417 -19.526 -2.084 -19.526 C -1.605 -19.526 -.918 -19.325 -.024 -18.913 L .406 -23.903 C -.778 -24.542 -2.117 -24.86 -3.625 -24.86 C -4.544 -24.86 -5.375 -24.672 -6.109 -24.29 C -6.854 -23.893 -7.396 -23.391 -7.738 -22.772 C -8.092 -22.153 -8.328 -21.313 -8.463 -20.268 C -8.564 -19.514 -8.628 -18.002 -8.628 -15.731 L -8.628 -5.124 L -10.973 -5.124 L -10.973 0 L -8.628 0 L -8.628 4.836 L -3.5 8.591 L -3.5 0 Z " fill="#231f20"/>
</g>
</g>
</g>
</svg>
